<?xml version="1.0" encoding="utf-8"?>
<!-- Generator: Adobe Illustrator 18.0.0, SVG Export Plug-In . SVG Version: 6.00 Build 0)  -->
<!DOCTYPE svg PUBLIC "-//W3C//DTD SVG 1.1//EN" "http://www.w3.org/Graphics/SVG/1.1/DTD/svg11.dtd">
<svg xmlns="http://www.w3.org/2000/svg" xmlns:xlink="http://www.w3.org/1999/xlink" version="1.1" id="Слой_1" x="0px" y="0px" viewBox="64 82 907 607" enable-background="new 64 82 907 607" xml:space="preserve">
<g>
	<path fill="#000000" stroke="" stroke-width="2" stroke-miterlimit="10" d="M423.9,390.3C423.9,390.3,423.9,390.1,423.9,390.3   C423.7,390.3,423.7,390.3,423.9,390.3z"/>
	<path fill="#000000" stroke="" stroke-width="2" stroke-miterlimit="10" d="M947.9,329.3c6-2.6,9.2-16.6,9.2-16.6   c-9.4,13.2-23.9,11.5-30.1,2.1c-6.2-9.4-49.5-48.9-49.5-48.9c1.5-10.5-74.7-55.5-81.8-55.5c-4.1,0-5.6,0.8-5.6,1.9   c-0.2,0-0.4,0.2-0.8,0.2c-7.5,3-50.4,66.8-78.8,110.2l-6.2-17.5l-2.3,0.8c-0.6-1.9-1.5-3.8-2.6-4.5c-1.1-0.9-2.6-0.9-4.7,0.8   c-4.1,3.6-10.3,30.8-15.4,55.9c-6.2-5.8-13.4-12.6-21.6-20.5c0.4-24.5,1.5-104.4,1.1-108c0,0,18.6,22.8,39.7,47.4   c8.3,2.3,46.3,52.9,56,59.4c0,0,8.1,5.6,26.3-9c-13.9,8.5-17.9,6.2-17.9,6.2s5.5-1.1,12.8-10c-12.2,7.7-23.9,7-23.9,7   c-4.1,0-48-55.9-48.5-60.4c-21.4-28.4-42.9-55.1-47.4-50.2c-5.3,5.5-8.8,9.6-8.8,9.6c-3,3.8-4.7,67.2-5.3,92.4   c-4.3-4.5-8.8-9.2-13.7-14.3c-14.7-15.6-29.3-26.3-43.3-34c-3.4-16-12.2-52.5-26.7-62.6c-0.2,0-2.6-0.4-2.6-0.4   c-0.4-0.9,2.4-3.8,2.4-3.8L471.1,243c-22.6-12-42.7,0.2-48.2,5.3c-5.6,5.1-17.9,6-25.6,9.8c-16.9-24.3-87.8-116.6-102.1-129.2   c-7.3-6.4-13.2-7.7-16.6-7.1c0,0-183.4-29-192-28.6c-8.7,0.2-3.6-2.8-8.7,0.2c-5.8,3.6,71.5,16.4,71.5,16.4s124.7,14.9,126.6,15.4   l0,0c0.4,0.4,1.1,0.6,2.1,0.6c7.3,0.6,46.5,46.1,55.5,56c7.5,8.1,46.1,60.9,59.4,79.4c-0.2,0.2-0.4,0.2-0.4,0.4   c-2.3,2.8-3.4,6.4-4.9,11.3c-22.8-4.9-44.4,3.6-44.4,3.6s-3.6,16.7-105.9,1.1c-102.3-15.8-145.2,16.9-155.2,29.7   c-10,12.6,2.8,10.2,2.8,10.2c61.9-51.9,160.8-32.9,187.9-28.8s60.6,6.6,73.2-3c7.5-5.8,25.6-5.3,38.9-4c-2.4,6.6-5.8,14.9-12.4,25   c-15.8,24.8-13.4,53.6-2.1,59.2c-0.8-16.4,54.2-13.7,68.1-26.3c13.9-12.6,24.6-23.5,31.8-27.6c4.3-2.4,20.7-10,26.3-22.9   c0.6,0.2,1.3-0.2,2.3-1.3c4-5.1,27.3,15,54.4,39.1c-0.2,2.4-0.6,5.3-0.8,8.7c-7.7-11.3-16.4-20.1-23.9-18.4   c-11.1-1.9-40.8,2.3-108,62.3c0,0-64.1,32.7-65.8,43.3c0.2,1.5-42.3,7-46.6,12.6c-4.5,5.6-17.3-4.5-17.3-4.5l12.8,10.2l-14.7,5.3   c0,0,33.7-6,38.9-9.6c5.3-3.6,18.6-10.2,25.2-3.6c7.3-3,43.3-42.5,70.7-48.9c1.3,2.4,1.9,5.3-0.2,6.6c4.3-3,82.6-53.4,104.8-67.7   c5.6,14.1-0.6,51.3,28.6,76.7L443.1,531.7l0,0c0,0-28,26.1-40.1,29.5c-5.6,1.7-15.8,1.7-23.5-1.7c5.1,6.8,15,7,15,7   s-9.4,4.5-18.1,3c8.3,8.5,28.4-2.6,28.4-2.6s29.3-26.1,38.9-28.4c1.1,0.2,1.9,3.9,1.9,3.9l117-138.4c20.7,15,20.7,1.5,17.3-11.5   l-0.9-7.9l17.1-20.3l0,0l0,0c-2.1,20.9,0.9,53.4,9.2,60.9c0.6,0.8,1.3,1.3,2.1,1.7c10.7,7.7,15.8-5.8,15.8-5.8l0,0   c8.7-6.4,18.1-16.4,23.9-24.5c2.1,0.8,4.3,1.7,6.4,2.4c-2.4,4.9-6,13.7-4.5,20.5c2.1,9.8,14.5,27.5,20.5,27.3   c6-0.2,18.8-0.2,22-1.9c1.1-0.6,2.8-16,4.7-35.9c11.8,1.7,19.6,1.9,19.6,1.9c5.1,19,19.2,35.9,36.5,49.8c0,0,35.2,110.6,47.4,147.8   c12.6-0.4,25.4,71.1,42.5,73.9c-9.2-10-7.1-17.1-7.1-17.1s11.9,13.2,20.9,13.4c-37.1-23.1-45.1-75.2-45.1-75.2l-48.5-135.2   c38.7,27.3,88,42.1,96.7,38.9c13.7-4.9,41,5.3,54.7,0.4c0,0,11.7-6,8.5-40.3c-11.3-99.3-95-114.9-118.9-122.1   c-16-4.9-57.7-1.7-78.2,19.7l-7.3-20.3c27.5-46.5,74.7-118.9,78.2-122.3c0.4-0.4,0.8-0.9,1.1-1.5c16.9,14.5,64.3,52.5,75.2,51.2   c0,0,1.3,2.1,2.8,0.2c0.8,0.6,1.5,1.1,2.6,1.7c15,9.4,47.2,49.1,47.2,49.1c24.6,28.2,41,5.1,40.6,1.9   C959.2,332.4,957.9,325.4,947.9,329.3z M493.5,263.3c-1.3-2.1-2.8-4.1-4.7-6.2c-2.8-3.2-5.5-5.8-8.3-8.1   c16.6-1.1,62.3-20.7,74.3-26c3.6,12.8,10.9,31.4,14.7,43.1C526.1,249.2,493.5,263.3,493.5,263.3z M578.2,375.1l-3.8-30.3   c5.6,5.1,11.5,10.2,16.9,14.9L578.2,375.1z M618.4,393.3c-0.9-4.5-2.1-9.4-3-14.1c3.2,2.3,6.4,4.3,9.8,6.4   C622.9,388,620.7,390.7,618.4,393.3z M703.1,324.8l2.3,6c-0.9,1.5-2.1,3-3,4.5C702.5,331.4,702.9,327.8,703.1,324.8z M720.2,371.7   c-2.8,4.3-4.7,9.4-5.6,14.9c-2.6-1.7-7.1-4.7-13.7-10c2.4-5.3,6.8-13.5,12.6-23.5L720.2,371.7z"/>
</g>
</svg>
